<svg width="47" height="48" viewBox="0 0 47 48" fill="none" xmlns="http://www.w3.org/2000/svg">
<rect width="46.7629" height="47.7399" rx="20" fill="#7471BC"/>
<path d="M5.84537 23.87H15.5876M5.84537 23.87C5.84537 33.7572 13.6965 41.7724 23.3815 41.7724M5.84537 23.87C5.84537 13.9827 13.6965 5.96753 23.3815 5.96753M15.5876 23.87H31.1753M15.5876 23.87C15.5876 33.7572 19.0771 41.7724 23.3815 41.7724M15.5876 23.87C15.5876 13.9827 19.0771 5.96753 23.3815 5.96753M31.1753 23.87H40.9176M31.1753 23.87C31.1753 13.9827 27.6859 5.96753 23.3815 5.96753M31.1753 23.87C31.1753 33.7572 27.6859 41.7724 23.3815 41.7724M40.9176 23.87C40.9176 13.9827 33.0664 5.96753 23.3815 5.96753M40.9176 23.87C40.9176 33.7572 33.0664 41.7724 23.3815 41.7724" stroke="white" stroke-width="2" stroke-linecap="round" stroke-linejoin="round"/>
</svg>
